<?xml version="1.0" encoding="UTF-8"?>
<!DOCTYPE svg PUBLIC "-//W3C//DTD SVG 1.1//EN" "http://www.w3.org/Graphics/SVG/1.1/DTD/svg11.dtd">
<!-- Creator: CorelDRAW 2018 (64 Bit) -->
<svg xmlns="http://www.w3.org/2000/svg" xml:space="preserve" width="827px" height="236px" version="1.1" style="shape-rendering:geometricPrecision; text-rendering:geometricPrecision; image-rendering:optimizeQuality; fill-rule:evenodd; clip-rule:evenodd"
viewBox="0 0 827 236.29"
 xmlns:xlink="http://www.w3.org/1999/xlink">
 <defs>
  <style type="text/css">
   <![CDATA[
    .fil1 {fill:#FFF212;fill-rule:nonzero}
    .fil0 {fill:#EC268F;fill-rule:nonzero}
   ]]>
  </style>
 </defs>
 <g id="Camada_x0020_1">
  <metadata id="CorelCorpID_0Corel-Layer"/>
  <path class="fil0" d="M126.75 107.56c-14.67,-5.79 -20.85,-9.46 -19.89,-14.68 0.97,-5.02 6.38,-6.37 11.78,-5.79 12.56,0.77 11.78,9.46 15.45,15.83 4.44,7.54 15.26,7.34 19.7,2.32 9.27,-11.01 -0.97,-31.48 -32.06,-33.21 -18.34,-0.97 -37.07,2.12 -42.87,19.31 -8.3,25.3 13.33,35.72 27.23,41.9 14.68,6.38 27.23,8.5 25.49,15.84 -1.35,5.98 -10.43,6.18 -16.22,5.4 -7.53,-1.15 -15.26,-2.12 -19.5,-15.06 -3.48,-10.43 -14.87,-11.2 -20.67,-5.02 -11.78,12.75 3.67,35.53 44.03,35.53 21.44,0 39.01,-6.75 43.26,-23.56 5.99,-23.94 -12.36,-29.35 -35.73,-38.81z"/>
  <path id="1" class="fil0" d="M224.08 72.03c-32.25,0 -52.72,18.73 -52.72,48.85 0,30.13 20.47,49.05 52.72,49.05 32.06,0 52.53,-18.92 52.53,-49.05 0,-30.12 -20.47,-48.85 -52.53,-48.85zm0 79.56c-11.2,0 -16.8,-13.13 -16.8,-30.71 0,-17.57 5.6,-30.51 16.8,-30.51 11.01,0 16.61,12.94 16.61,30.51 0,17.58 -5.6,30.71 -16.61,30.71z"/>
  <path id="2" class="fil0" d="M454.66 149.46c-3.47,-4.82 -3.67,-11.2 -3.67,-24.72 0,-9.46 0,-17.57 0,-20.85 0,-14.87 -6.76,-31.86 -32.05,-31.86 -14.49,0 -25.11,8.3 -31.87,15.83 -4.05,-8.88 -12.74,-15.83 -28.77,-15.83 -12.55,0 -22.02,5.98 -28.78,12.55 -0.38,-10.04 -5.98,-14.68 -16.6,-11.78 -2.13,0.58 -13.52,4.05 -19.51,5.98 -5.79,1.94 -8.69,4.45 -8.88,8.5 -0.39,3.48 1.16,5.99 6.18,12.94 3.48,4.83 3.67,11.2 3.67,24.52 0,13.52 -0.19,19.9 -3.67,24.72 -5.02,6.96 -6.57,9.47 -6.18,12.94 0.19,4.06 2.9,5.8 8.88,5.8 0.39,0 36.89,0 37.08,0 5.99,0 8.69,-1.74 9.08,-5.8 0.19,-3.47 -1.16,-5.98 -6.18,-12.94 -3.67,-4.82 -3.87,-11.2 -3.87,-24.72 0,-4.63 0,-9.26 0,-13.7 0,-11.78 5.03,-18.54 13.72,-18.54 13.9,0 11.78,16.99 11.78,30.31l0 1.93c0,13.52 -0.2,19.9 -3.67,24.72 -5.02,6.96 -6.57,9.47 -6.18,12.94 0.19,4.06 2.89,5.8 8.88,5.8 0.39,0 36.88,0 37.08,0 5.98,0 8.69,-1.74 9.07,-5.8 0.2,-3.47 -1.16,-5.98 -6.18,-12.94 -3.47,-4.82 -3.67,-11.2 -3.67,-24.72 0,-5.02 0,-9.84 0,-13.7 0,-11.78 4.83,-18.54 13.52,-18.54 13.91,0 11.78,16.99 11.78,30.31l0 1.93c0,13.52 -0.19,19.9 -3.67,24.72 -5.02,6.96 -6.37,9.47 -6.18,12.94 0.39,4.06 3.09,5.8 9.08,5.8 0.19,0 36.69,0 37.08,0 5.98,0 8.69,-1.74 8.88,-5.8 0.39,-3.47 -1.16,-5.98 -6.18,-12.94z"/>
  <path id="3" class="fil0" d="M552.76 130.73c-6.37,0 -9.27,6.57 -11.97,11.59 -1.93,3.67 -5.99,7.72 -15.26,7.72l-16.41 0c15.45,-22.78 40.17,-59.09 42.1,-62.18 4.63,-6.95 2.7,-14.29 -6.37,-14.29 -7.54,0 -57.94,0 -63.73,0 -5.6,0 -8.11,1.93 -8.89,7.73 -1.15,6.95 -2.51,16.41 -3.47,23.17 -0.58,4.25 1.54,6.57 5.02,6.57 6.37,0 9.27,-6.57 11.97,-11.59 1.93,-3.67 5.99,-7.73 15.26,-7.73l11.01 0c-14.87,21.83 -38.24,56.2 -42.3,62.19 -5.02,7.33 -3.28,14.29 5.6,14.29 5.8,0 64.5,0 70.1,0 5.61,0 8.12,-1.94 8.89,-7.73 1.16,-6.95 2.51,-16.41 3.47,-23.17 0.58,-4.25 -1.54,-6.57 -5.02,-6.57z"/>
  <path id="4" class="fil0" d="M614.75 149.46c-3.47,-4.82 -3.67,-11.2 -3.67,-24.72 0,-17.37 0,-34.37 0,-39 0,-10.82 -5.79,-16.03 -16.8,-12.94 -2.12,0.58 -13.51,4.05 -19.5,5.98 -5.79,1.94 -8.69,4.45 -8.88,8.5 -0.39,3.48 1.15,5.99 6.17,12.94 3.48,4.83 3.67,11.2 3.67,24.52 0,13.52 -0.19,19.9 -3.67,24.72 -5.02,6.96 -6.56,9.47 -6.17,12.94 0.19,4.06 2.89,5.8 8.88,5.8 0.39,0 36.88,0 37.27,0 5.79,0 8.5,-1.74 8.88,-5.8 0.2,-3.47 -1.16,-5.98 -6.18,-12.94zm-24.14 -85.74c12.17,0 22.02,-8.88 22.02,-20.08 0,-11.01 -9.85,-19.89 -22.02,-19.89 -11.97,0 -21.82,8.88 -21.82,19.89 0,11.2 9.85,20.08 21.82,20.08z"/>
  <path id="5" class="fil0" d="M737.96 149.46c-3.48,-4.82 -3.67,-11.2 -3.67,-24.72 0,-9.46 0,-17.57 0,-20.85 0,-14.87 -8.69,-31.86 -33.99,-31.86 -12.16,0 -21.43,5.79 -28,12.35 -0.58,-9.84 -6.18,-14.48 -16.8,-11.58 -2.12,0.58 -13.52,4.05 -19.31,5.98 -5.99,1.94 -8.69,4.45 -9.08,8.5 -0.19,3.48 1.16,5.99 6.18,12.94 3.48,4.83 3.87,11.97 3.87,25.1 0,12.94 -0.39,19.32 -3.87,24.14 -5.02,6.96 -6.37,9.47 -6.18,12.94 0.39,4.06 3.09,5.8 9.08,5.8 0.19,0 36.69,0 37.08,0 5.98,0 8.69,-1.74 8.88,-5.8 0.39,-3.47 -1.16,-5.98 -6.18,-12.94 -3.48,-4.82 -3.67,-11.2 -3.67,-24.72 0,-4.63 0,-9.26 0,-13.7 0,-11.78 4.44,-18.54 13.13,-18.54 13.91,0 13.71,16.99 13.71,30.31l0 1.93c0,13.52 -0.19,19.9 -3.66,24.72 -5.03,6.96 -6.57,9.47 -6.38,12.94 0.39,4.06 3.09,5.8 9.08,5.8 0.38,0 36.69,0 37.07,0 5.99,0 8.7,-1.74 9.08,-5.8 0.19,-3.47 -1.35,-5.98 -6.37,-12.94z"/>
  <path class="fil1" d="M118.62 96.94c-14.68,-5.8 -20.86,-9.46 -19.89,-14.68 0.96,-5.02 6.37,-6.37 11.78,-5.79 12.55,0.77 11.78,9.46 15.45,15.83 4.44,7.53 15.25,7.34 19.69,2.32 9.27,-11.01 -0.96,-31.48 -32.05,-33.22 -18.35,-0.96 -37.08,2.13 -42.87,19.32 -8.31,25.29 13.32,35.72 27.22,41.9 14.68,6.37 27.23,8.5 25.5,15.84 -1.36,5.98 -10.43,6.18 -16.23,5.4 -7.53,-1.15 -15.25,-2.12 -19.5,-15.06 -3.47,-10.43 -14.87,-11.2 -20.66,-5.02 -11.78,12.75 3.67,35.53 44.03,35.53 21.43,0 39.01,-6.76 43.26,-23.56 5.98,-23.94 -12.36,-29.35 -35.73,-38.81z"/>
  <path id="1" class="fil1" d="M215.95 61.4c-32.25,0 -52.72,18.74 -52.72,48.86 0,30.13 20.47,49.05 52.72,49.05 32.06,0 52.52,-18.92 52.52,-49.05 0,-30.12 -20.46,-48.86 -52.52,-48.86zm0 79.57c-11.2,0 -16.8,-13.13 -16.8,-30.71 0,-17.57 5.6,-30.51 16.8,-30.51 11.01,0 16.61,12.94 16.61,30.51 0,17.58 -5.6,30.71 -16.61,30.71z"/>
  <path id="2" class="fil1" d="M446.53 138.84c-3.48,-4.82 -3.67,-11.2 -3.67,-24.72 0,-9.46 0,-17.57 0,-20.85 0,-14.87 -6.76,-31.87 -32.06,-31.87 -14.48,0 -25.1,8.31 -31.86,15.84 -4.06,-8.88 -12.75,-15.84 -28.78,-15.84 -12.55,0 -22.01,5.99 -28.77,12.56 -0.39,-10.04 -5.99,-14.68 -16.61,-11.78 -2.12,0.58 -13.52,4.05 -19.5,5.98 -5.8,1.94 -8.69,4.45 -8.89,8.5 -0.38,3.48 1.16,5.99 6.18,12.94 3.48,4.83 3.67,11.2 3.67,24.52 0,13.52 -0.19,19.9 -3.67,24.72 -5.02,6.96 -6.56,9.47 -6.18,12.94 0.2,4.06 2.9,5.8 8.89,5.8 0.38,0 36.88,0 37.07,0 5.99,0 8.69,-1.74 9.08,-5.8 0.19,-3.47 -1.16,-5.98 -6.18,-12.94 -3.67,-4.82 -3.86,-11.2 -3.86,-24.72 0,-4.63 0,-9.26 0,-13.71 0,-11.78 5.02,-18.53 13.71,-18.53 13.9,0 11.78,16.99 11.78,30.31l0 1.93c0,13.52 -0.19,19.9 -3.67,24.72 -5.02,6.96 -6.57,9.47 -6.18,12.94 0.19,4.06 2.9,5.8 8.88,5.8 0.39,0 36.89,0 37.08,0 5.99,0 8.69,-1.74 9.08,-5.8 0.19,-3.47 -1.16,-5.98 -6.18,-12.94 -3.48,-4.82 -3.67,-11.2 -3.67,-24.72 0,-5.02 0,-9.84 0,-13.71 0,-11.78 4.83,-18.53 13.52,-18.53 13.9,0 11.78,16.99 11.78,30.31l0 1.93c0,13.52 -0.2,19.9 -3.67,24.72 -5.02,6.96 -6.37,9.47 -6.18,12.94 0.38,4.06 3.09,5.8 9.07,5.8 0.2,0 36.7,0 37.08,0 5.99,0 8.69,-1.74 8.89,-5.8 0.38,-3.47 -1.16,-5.98 -6.18,-12.94z"/>
  <path id="3" class="fil1" d="M544.63 120.11c-6.37,0 -9.27,6.57 -11.98,11.59 -1.93,3.67 -5.98,7.72 -15.25,7.72l-16.42 0c15.45,-22.79 40.17,-59.09 42.1,-62.18 4.64,-6.95 2.71,-14.29 -6.37,-14.29 -7.53,0 -57.93,0 -63.73,0 -5.6,0 -8.11,1.93 -8.88,7.72 -1.16,6.96 -2.51,16.42 -3.48,23.18 -0.58,4.25 1.55,6.56 5.02,6.56 6.38,0 9.27,-6.56 11.98,-11.58 1.93,-3.67 5.98,-7.73 15.25,-7.73l11.01 0c-14.87,21.82 -38.24,56.2 -42.29,62.18 -5.02,7.34 -3.28,14.3 5.6,14.3 5.79,0 64.5,0 70.1,0 5.6,0 8.11,-1.94 8.88,-7.73 1.16,-6.95 2.51,-16.41 3.48,-23.17 0.58,-4.25 -1.55,-6.57 -5.02,-6.57z"/>
  <path id="4" class="fil1" d="M606.62 138.84c-3.48,-4.82 -3.67,-11.2 -3.67,-24.72 0,-17.38 0,-34.37 0,-39 0,-10.82 -5.79,-16.03 -16.8,-12.94 -2.13,0.58 -13.52,4.05 -19.51,5.98 -5.79,1.94 -8.69,4.45 -8.88,8.5 -0.39,3.48 1.16,5.99 6.18,12.94 3.48,4.83 3.67,11.2 3.67,24.52 0,13.52 -0.19,19.9 -3.67,24.72 -5.02,6.96 -6.57,9.47 -6.18,12.94 0.19,4.06 2.9,5.8 8.88,5.8 0.39,0 36.89,0 37.27,0 5.8,0 8.5,-1.74 8.89,-5.8 0.19,-3.47 -1.16,-5.98 -6.18,-12.94zm-24.14 -85.74c12.16,0 22.01,-8.88 22.01,-20.08 0,-11.01 -9.85,-19.89 -22.01,-19.89 -11.97,0 -21.82,8.88 -21.82,19.89 0,11.2 9.85,20.08 21.82,20.08z"/>
  <path id="5" class="fil1" d="M729.82 138.84c-3.47,-4.82 -3.67,-11.2 -3.67,-24.72 0,-9.46 0,-17.57 0,-20.85 0,-14.87 -8.68,-31.87 -33.98,-31.87 -12.17,0 -21.44,5.8 -28.01,12.36 -0.57,-9.84 -6.17,-14.48 -16.8,-11.58 -2.12,0.58 -13.51,4.05 -19.31,5.98 -5.98,1.94 -8.69,4.45 -9.07,8.5 -0.2,3.48 1.16,5.99 6.18,12.94 3.47,4.83 3.86,11.97 3.86,25.1 0,12.94 -0.39,19.32 -3.86,24.14 -5.02,6.96 -6.38,9.47 -6.18,12.94 0.38,4.06 3.09,5.8 9.07,5.8 0.2,0 36.69,0 37.08,0 5.99,0 8.69,-1.74 8.88,-5.8 0.39,-3.47 -1.15,-5.98 -6.18,-12.94 -3.47,-4.82 -3.67,-11.2 -3.67,-24.72 0,-4.63 0,-9.26 0,-13.71 0,-11.78 4.45,-18.53 13.14,-18.53 13.9,0 13.71,16.99 13.71,30.31l0 1.93c0,13.52 -0.19,19.9 -3.67,24.72 -5.02,6.96 -6.57,9.47 -6.37,12.94 0.38,4.06 3.09,5.8 9.07,5.8 0.39,0 36.69,0 37.08,0 5.99,0 8.69,-1.74 9.08,-5.8 0.19,-3.47 -1.35,-5.98 -6.38,-12.94z"/>
 </g>
</svg>
